<svg xmlns="http://www.w3.org/2000/svg" viewBox="0 0 50 32" width="50" height="32">
  <rect width="50" height="32" rx="4" fill="#000"/>
  <path d="M12.5 10.5c-.6.7-1.5 1.2-2.4 1.1-.1-.9.3-1.9.9-2.5.6-.7 1.6-1.2 2.3-1.2.1 1-.3 1.9-.8 2.6zm.8 1.3c-1.3-.1-2.5.8-3.1.8-.6 0-1.6-.7-2.7-.7-1.4 0-2.7.8-3.4 2.1-1.5 2.5-.4 6.3 1 8.4.7 1 1.5 2.2 2.6 2.1 1-.1 1.4-.7 2.7-.7 1.2 0 1.6.7 2.7.7 1.1 0 1.8-1 2.5-2.1.8-1.2 1.1-2.3 1.1-2.4-1.2-.5-2.2-1.9-2.2-3.6 0-1.4.8-2.7 1.9-3.3-.7-1-1.8-1.3-3.1-1.3z" fill="#fff"/>
  <text x="20" y="19" font-family="Arial,sans-serif" font-size="9" font-weight="600" fill="#fff">Pay</text>
</svg>
