<svg xmlns="http://www.w3.org/2000/svg" viewBox="0 0 50 32" width="50" height="32">
  <rect width="50" height="32" rx="4" fill="#fff" stroke="#e6e6e6"/>
  <path d="M19.5 8h5.2c2.8 0 4.8 1.8 4.4 4.5-.5 3.2-2.8 5-5.8 5h-1.5c-.4 0-.7.3-.8.7l-.7 4.3c0 .2-.2.4-.5.4h-2.6c-.3 0-.5-.3-.4-.6l2.2-13.7c.1-.4.3-.6.5-.6z" fill="#003087"/>
  <path d="M32.5 8h5.2c2.8 0 4.8 1.8 4.4 4.5-.5 3.2-2.8 5-5.8 5h-1.5c-.4 0-.7.3-.8.7l-.7 4.3c0 .2-.2.4-.5.4h-2.6c-.3 0-.5-.3-.4-.6l2.2-13.7c.1-.4.3-.6.5-.6z" fill="#0070E0"/>
  <path d="M22.8 12.5c.3-2 1.8-3.2 3.8-3.2h2.6c.8 0 1.5.1 2.1.4-.4 2.8-2.4 4.8-5.3 4.8h-2.4l-.8 5h-2.5l2.5-7z" fill="#003087"/>
</svg>
