<svg xmlns="http://www.w3.org/2000/svg" viewBox="0 0 50 32" width="50" height="32">
  <rect width="50" height="32" rx="4" fill="#fff" stroke="#e6e6e6"/>
  <path d="M22.5 16.5v4h-1.3v-10h3.5c.9 0 1.6.3 2.2.8.6.5.9 1.2.9 2s-.3 1.5-.9 2c-.6.5-1.3.8-2.2.8h-2.2zm0-4.7v3.5h2.2c.5 0 1-.2 1.3-.5.4-.3.5-.7.5-1.2s-.2-.9-.5-1.2c-.3-.4-.8-.5-1.3-.5h-2.2z" fill="#5F6368"/>
  <path d="M31.5 13c1 0 1.8.3 2.4.8.6.6.9 1.3.9 2.3v4.4h-1.2v-1h-.1c-.5.8-1.2 1.2-2.2 1.2-.8 0-1.5-.2-2-.7-.5-.5-.8-1-.8-1.7 0-.7.3-1.3.8-1.7.5-.4 1.2-.6 2.1-.6.8 0 1.4.1 1.8.4v-.3c0-.5-.2-.9-.5-1.2-.4-.3-.8-.5-1.3-.5-.7 0-1.3.3-1.7.9l-1.1-.7c.6-.9 1.5-1.4 2.9-1.4zm-1.7 5.2c0 .4.2.7.5.9.3.2.7.4 1.1.4.6 0 1.1-.2 1.5-.6.4-.4.7-.9.7-1.4-.4-.3-.9-.4-1.6-.4-.5 0-1 .1-1.4.4-.5.2-.8.5-.8.7z" fill="#5F6368"/>
  <path d="M42 13.2l-4.2 9.6h-1.3l1.6-3.4-2.8-6.2h1.4l2 4.6 2-4.6h1.3z" fill="#5F6368"/>
  <path d="M15.5 15.8c0-.4 0-.8-.1-1.2h-5.9v2.2h3.4c-.1.8-.5 1.4-1.1 1.9v1.5h1.8c1.1-.9 1.9-2.4 1.9-4.4z" fill="#4285F4"/>
  <path d="M9.5 20.5c1.5 0 2.8-.5 3.7-1.3l-1.8-1.4c-.5.3-1.1.5-1.9.5-1.5 0-2.7-1-3.1-2.3H4.5v1.5c.9 1.8 2.8 3 5 3z" fill="#34A853"/>
  <path d="M6.4 16c-.1-.4-.2-.7-.2-1.1s.1-.8.2-1.1v-1.5H4.5c-.4.8-.6 1.7-.6 2.6s.2 1.8.6 2.6l1.9-1.5z" fill="#FBBC04"/>
  <path d="M9.5 11.5c.8 0 1.6.3 2.1.8l1.6-1.6c-1-.9-2.3-1.5-3.7-1.5-2.2 0-4.1 1.2-5 3l1.9 1.5c.4-1.3 1.6-2.2 3.1-2.2z" fill="#EA4335"/>
</svg>
