<svg xmlns="http://www.w3.org/2000/svg" viewBox="0 0 50 32" width="50" height="32">
  <rect width="50" height="32" rx="4" fill="#1A1F71"/>
  <path d="M21.5 21h-2.8l1.8-11h2.8l-1.8 11zm-4.8 0l-2.7-7.5-.3-1.5c-.5-1.3-1.6-1.9-3-2h-4.5l-.1.4c1.2.3 2.3.7 3.2 1.2l2.7 9.4h2.9l4.4-11h-2.9l-2.7 11h3zm20.3-7.2c0-.9.7-1.5 2-1.5.9 0 1.7.2 2.4.5l.4-2.3c-.7-.3-1.6-.5-2.7-.5-2.8 0-4.8 1.5-4.8 3.6 0 1.6 1.4 2.5 2.5 3 1.1.5 1.5.9 1.5 1.4 0 .7-.9 1.1-1.7 1.1-1.1 0-2.1-.3-2.8-.6l-.4 2.3c.8.3 1.9.5 3.2.5 3 0 5-1.5 5-3.7 0-2.9-4-3-4-4.3zm10.6 7.2l2.2-11h-2.5c-.7 0-1.2.4-1.4 1l-4.1 10h2.9l.6-1.6h3.5l.3 1.6h2.5l-2-11h-2zm-2.8-3.1l1.4-4 .8 4h-2.2z" fill="#fff"/>
</svg>
